<?xml version="1.0" encoding="utf-8"?>
<!-- Generator: Adobe Illustrator 22.0.0, SVG Export Plug-In . SVG Version: 6.00 Build 0)  -->
<svg version="1.1" id="Calque_1" xmlns="http://www.w3.org/2000/svg" xmlns:xlink="http://www.w3.org/1999/xlink" x="0px" y="0px"
	 viewBox="0 0 980 400" enable-background="new 0 0 980 400" xml:space="preserve">
<g>
	<path fill="#E51A34" d="M944.6,124.7c-63.1-5.7-126.7,0-189.8,3c-9.5,0.4-9.6,14.7,0,14.8c63.2,1.1,126.9,5,189.8-2.5
		C954.3,138.9,954.5,125.6,944.6,124.7z"/>
	<path fill="#E51A34" d="M36.6,124.7c63.1-5.7,126.7,0,189.8,3c9.5,0.4,9.6,14.7,0,14.8c-63.2,1.1-126.9,5-189.8-2.5
		C26.8,138.9,26.6,125.6,36.6,124.7z"/>
	<path fill="#E51A34" d="M832.4,22.7c-15.2,6.9-28.2,18.3-41,28.8c-12.4,10.3-25.7,21.5-35,34.7c-3.6,5.2,3.4,11.6,8.5,8.5
		c13.4-8.2,25-19.5,37.6-28.9c13.4-10,27.8-18.8,39.8-30.3C849.4,28.7,840.4,19.1,832.4,22.7z"/>
	<path fill="#E51A34" d="M843.4,212.5c-11.5-9.4-23.9-15.9-36.8-23.3c-12.5-7.1-24.4-16-37.8-21.3c-6.6-2.6-10.4,6.5-6.4,10.9
		c9.6,10.6,23.1,18.3,35,26c12.7,8.1,24.6,15.1,39.2,19.2C842.9,225.9,848.9,217.1,843.4,212.5z"/>
	<path fill="#E51A34" d="M145.5,22.7c15.2,6.9,28.2,18.3,41,28.8c12.4,10.3,25.7,21.5,35,34.7c3.6,5.2-3.4,11.6-8.5,8.5
		c-13.4-8.2-25-19.5-37.6-28.9c-13.4-10-27.8-18.8-39.8-30.3C128.5,28.7,137.5,19.1,145.5,22.7z"/>
	<path fill="#E51A34" d="M134.6,212.5c11.5-9.4,23.9-15.9,36.8-23.3c12.5-7.1,24.4-16,37.8-21.3c6.6-2.6,10.4,6.5,6.4,10.9
		c-9.6,10.6-23.1,18.3-35,26c-12.7,8.1-24.6,15.1-39.2,19.2C135,225.9,129,217.1,134.6,212.5z"/>
</g>
</svg>
